<?xml version="1.0" encoding="UTF-8"?> <!-- Generator: Adobe Illustrator 24.1.0, SVG Export Plug-In . SVG Version: 6.00 Build 0) --> <svg xmlns="http://www.w3.org/2000/svg" xmlns:xlink="http://www.w3.org/1999/xlink" version="1.1" x="0px" y="0px" width="586.953px" height="817.449px" viewBox="0 0 586.953 817.449" xml:space="preserve"> <g id="Layer_2"> <linearGradient id="SVGID_1_" gradientUnits="userSpaceOnUse" x1="666.3151" y1="786.304" x2="666.3151" y2="-7.0198"> <stop offset="0" style="stop-color:#F79421"></stop> <stop offset="1" style="stop-color:#EF4125"></stop> </linearGradient> <ellipse fill="url(#SVGID_1_)" cx="666.315" cy="347.505" rx="453.425" ry="453.5"></ellipse> </g> <g id="Layer_1"> <path fill="#FBB03C" d="M320.812-104.995c-59.596,0-107.909,48.03-107.909,107.278s48.312,107.278,107.909,107.278 c59.596,0,107.909-48.03,107.909-107.278S380.408-104.995,320.812-104.995z M320.812,71.942c-38.698,0-70.068-31.187-70.068-69.659 c0-38.472,31.371-69.659,70.068-69.659S390.88-36.188,390.88,2.284C390.88,40.755,359.509,71.942,320.812,71.942z"></path> </g> <g id="Layer_3"> <g> <linearGradient id="SVGID_2_" gradientUnits="userSpaceOnUse" x1="-2511.6047" y1="84.4408" x2="-2011.4636" y2="84.4408" gradientTransform="matrix(-1 0 0 1 -1912.3076 0)"> <stop offset="0" style="stop-color:#F04F24"></stop> <stop offset="1" style="stop-color:#F1CC26"></stop> </linearGradient> <path fill="none" stroke="url(#SVGID_2_)" stroke-miterlimit="10" d="M388.053-70.266 C267.771-104.533,72.832-30.452,102.733,15.05c64.337,97.904,366.441,219.585,496.513,232.872"></path> <linearGradient id="SVGID_3_" gradientUnits="userSpaceOnUse" x1="-2511.0122" y1="94.5649" x2="-2007.2491" y2="94.5649" gradientTransform="matrix(-1 0 0 1 -1912.3076 0)"> <stop offset="0" style="stop-color:#F04F24"></stop> <stop offset="1" style="stop-color:#F1CC26"></stop> </linearGradient> <path fill="none" stroke="url(#SVGID_3_)" stroke-miterlimit="10" d="M386.921-69.267 C266.905-102.934,69.341-25.089,98.304,21.344c59.99,96.176,360.309,228.534,500.341,245.261"></path> <linearGradient id="SVGID_4_" gradientUnits="userSpaceOnUse" x1="-2510.4182" y1="104.6681" x2="-2003.025" y2="104.6681" gradientTransform="matrix(-1 0 0 1 -1912.3076 0)"> <stop offset="0" style="stop-color:#F04F24"></stop> <stop offset="1" style="stop-color:#F1CC26"></stop> </linearGradient> <path fill="none" stroke="url(#SVGID_4_)" stroke-miterlimit="10" d="M385.789-68.268C266.04-101.336,65.85-19.774,93.875,27.638 c55.754,94.321,354.178,237.482,504.169,257.649"></path> <linearGradient id="SVGID_5_" gradientUnits="userSpaceOnUse" x1="-2509.8232" y1="114.7525" x2="-1998.7924" y2="114.7525" gradientTransform="matrix(-1 0 0 1 -1912.3076 0)"> <stop offset="0" style="stop-color:#F04F24"></stop> <stop offset="1" style="stop-color:#F1CC26"></stop> </linearGradient> <path fill="none" stroke="url(#SVGID_5_)" stroke-miterlimit="10" d="M384.657-67.269C265.174-99.737,62.362-14.506,89.446,33.932 c51.633,92.344,348.046,246.431,507.997,270.038"></path> <linearGradient id="SVGID_6_" gradientUnits="userSpaceOnUse" x1="-2509.2278" y1="124.8199" x2="-1994.5521" y2="124.8199" gradientTransform="matrix(-1 0 0 1 -1912.3076 0)"> <stop offset="0" style="stop-color:#F04F24"></stop> <stop offset="1" style="stop-color:#F1CC26"></stop> </linearGradient> <path fill="none" stroke="url(#SVGID_6_)" stroke-miterlimit="10" d="M383.524-66.27C264.308-98.139,58.885-9.285,85.017,40.226 c47.633,90.249,341.914,255.38,511.825,282.427"></path> <linearGradient id="SVGID_7_" gradientUnits="userSpaceOnUse" x1="-2508.6313" y1="134.8717" x2="-1990.3052" y2="134.8717" gradientTransform="matrix(-1 0 0 1 -1912.3076 0)"> <stop offset="0" style="stop-color:#F04F24"></stop> <stop offset="1" style="stop-color:#F1CC26"></stop> </linearGradient> <path fill="none" stroke="url(#SVGID_7_)" stroke-miterlimit="10" d="M382.392-65.271C263.442-96.54,55.424-4.112,80.588,46.519 c43.758,88.042,335.783,264.328,515.652,294.816"></path> <linearGradient id="SVGID_8_" gradientUnits="userSpaceOnUse" x1="-2508.0347" y1="144.9095" x2="-1986.0526" y2="144.9095" gradientTransform="matrix(-1 0 0 1 -1912.3076 0)"> <stop offset="0" style="stop-color:#F04F24"></stop> <stop offset="1" style="stop-color:#F1CC26"></stop> </linearGradient> <path fill="none" stroke="url(#SVGID_8_)" stroke-miterlimit="10" d="M381.26-64.272C262.576-94.942,51.986,1.016,76.159,52.813 c40.011,85.732,329.651,273.277,519.48,307.205"></path> <linearGradient id="SVGID_9_" gradientUnits="userSpaceOnUse" x1="-2507.4373" y1="154.9343" x2="-1981.7952" y2="154.9343" gradientTransform="matrix(-1 0 0 1 -1912.3076 0)"> <stop offset="0" style="stop-color:#F04F24"></stop> <stop offset="1" style="stop-color:#F1CC26"></stop> </linearGradient> <path fill="none" stroke="url(#SVGID_9_)" stroke-miterlimit="10" d="M380.128-63.273C261.71-93.344,48.578,6.099,71.73,59.107 c36.393,83.325,323.519,282.226,523.308,319.594"></path> <linearGradient id="SVGID_10_" gradientUnits="userSpaceOnUse" x1="-2506.8396" y1="164.9474" x2="-1977.5337" y2="164.9474" gradientTransform="matrix(-1 0 0 1 -1912.3076 0)"> <stop offset="0" style="stop-color:#F04F24"></stop> <stop offset="1" style="stop-color:#F1CC26"></stop> </linearGradient> <path fill="none" stroke="url(#SVGID_10_)" stroke-miterlimit="10" d="M378.996-62.274C260.845-91.745,45.21,11.137,67.301,65.401 c32.905,80.83,317.388,291.174,527.136,331.982"></path> <linearGradient id="SVGID_11_" gradientUnits="userSpaceOnUse" x1="-2506.2417" y1="174.9498" x2="-1973.2687" y2="174.9498" gradientTransform="matrix(-1 0 0 1 -1912.3076 0)"> <stop offset="0" style="stop-color:#F04F24"></stop> <stop offset="1" style="stop-color:#F1CC26"></stop> </linearGradient> <path fill="none" stroke="url(#SVGID_11_)" stroke-miterlimit="10" d="M377.863-61.275 C259.979-90.147,41.892,16.133,62.872,71.695c29.549,78.255,311.256,300.123,530.963,344.371"></path> <linearGradient id="SVGID_12_" gradientUnits="userSpaceOnUse" x1="-2505.6433" y1="184.9422" x2="-1969.0007" y2="184.9422" gradientTransform="matrix(-1 0 0 1 -1912.3076 0)"> <stop offset="0" style="stop-color:#F04F24"></stop> <stop offset="1" style="stop-color:#F1CC26"></stop> </linearGradient> <path fill="none" stroke="url(#SVGID_12_)" stroke-miterlimit="10" d="M376.731-60.276 C259.113-88.548,38.634,21.089,58.443,77.989c26.323,75.61,305.124,309.072,534.791,356.76"></path> <linearGradient id="SVGID_13_" gradientUnits="userSpaceOnUse" x1="-2505.0449" y1="194.9256" x2="-1964.73" y2="194.9256" gradientTransform="matrix(-1 0 0 1 -1912.3076 0)"> <stop offset="0" style="stop-color:#F04F24"></stop> <stop offset="1" style="stop-color:#F1CC26"></stop> </linearGradient> <path fill="none" stroke="url(#SVGID_13_)" stroke-miterlimit="10" d="M375.599-59.277C258.247-86.95,35.449,26.007,54.014,84.282 c23.226,72.906,298.992,318.02,538.619,369.149"></path> <linearGradient id="SVGID_14_" gradientUnits="userSpaceOnUse" x1="-2504.446" y1="204.9006" x2="-1960.4567" y2="204.9006" gradientTransform="matrix(-1 0 0 1 -1912.3076 0)"> <stop offset="0" style="stop-color:#F04F24"></stop> <stop offset="1" style="stop-color:#F1CC26"></stop> </linearGradient> <path fill="none" stroke="url(#SVGID_14_)" stroke-miterlimit="10" d="M374.467-58.278C257.381-85.351,32.35,30.89,49.585,90.576 c20.257,70.153,292.861,326.969,542.447,381.538"></path> <linearGradient id="SVGID_15_" gradientUnits="userSpaceOnUse" x1="-2503.8472" y1="214.8678" x2="-1956.1804" y2="214.8678" gradientTransform="matrix(-1 0 0 1 -1912.3076 0)"> <stop offset="0" style="stop-color:#F04F24"></stop> <stop offset="1" style="stop-color:#F1CC26"></stop> </linearGradient> <path fill="none" stroke="url(#SVGID_15_)" stroke-miterlimit="10" d="M373.334-57.279C256.516-83.753,29.356,35.742,45.156,96.87 c17.412,67.362,286.729,335.918,546.274,393.927"></path> <linearGradient id="SVGID_16_" gradientUnits="userSpaceOnUse" x1="-2503.248" y1="224.8279" x2="-1951.9003" y2="224.8279" gradientTransform="matrix(-1 0 0 1 -1912.3076 0)"> <stop offset="0" style="stop-color:#F04F24"></stop> <stop offset="1" style="stop-color:#F1CC26"></stop> </linearGradient> <path fill="none" stroke="url(#SVGID_16_)" stroke-miterlimit="10" d="M372.202-56.28C255.65-82.154,26.483,40.567,40.727,103.164 c14.688,64.547,280.597,344.866,550.102,406.315"></path> <linearGradient id="SVGID_17_" gradientUnits="userSpaceOnUse" x1="-2502.6487" y1="234.7813" x2="-1947.6149" y2="234.7813" gradientTransform="matrix(-1 0 0 1 -1912.3076 0)"> <stop offset="0" style="stop-color:#F04F24"></stop> <stop offset="1" style="stop-color:#F1CC26"></stop> </linearGradient> <path fill="none" stroke="url(#SVGID_17_)" stroke-miterlimit="10" d="M371.07-55.281 C254.784-80.556,23.754,45.374,36.298,109.458c12.081,61.719,274.466,353.815,553.93,418.704"></path> <linearGradient id="SVGID_18_" gradientUnits="userSpaceOnUse" x1="-2502.0493" y1="244.7287" x2="-1943.3215" y2="244.7287" gradientTransform="matrix(-1 0 0 1 -1912.3076 0)"> <stop offset="0" style="stop-color:#F04F24"></stop> <stop offset="1" style="stop-color:#F1CC26"></stop> </linearGradient> <path fill="none" stroke="url(#SVGID_18_)" stroke-miterlimit="10" d="M369.938-54.282 C253.918-78.958,21.192,50.169,31.869,115.752c9.588,58.895,268.334,362.764,557.758,431.093"></path> <linearGradient id="SVGID_19_" gradientUnits="userSpaceOnUse" x1="-2501.4497" y1="254.6703" x2="-1939.0164" y2="254.6703" gradientTransform="matrix(-1 0 0 1 -1912.3076 0)"> <stop offset="0" style="stop-color:#F04F24"></stop> <stop offset="1" style="stop-color:#F1CC26"></stop> </linearGradient> <path fill="none" stroke="url(#SVGID_19_)" stroke-miterlimit="10" d="M368.805-53.283 C253.052-77.359,18.825,54.964,27.44,122.045c7.203,56.09,262.202,371.712,561.585,443.482"></path> <linearGradient id="SVGID_20_" gradientUnits="userSpaceOnUse" x1="-2500.8501" y1="264.6068" x2="-1934.6937" y2="264.6068" gradientTransform="matrix(-1 0 0 1 -1912.3076 0)"> <stop offset="0" style="stop-color:#F04F24"></stop> <stop offset="1" style="stop-color:#F1CC26"></stop> </linearGradient> <path fill="none" stroke="url(#SVGID_20_)" stroke-miterlimit="10" d="M367.673-52.284 C252.186-75.761,16.685,59.775,23.011,128.339C27.931,181.661,279.082,509,588.424,584.21"></path> <linearGradient id="SVGID_21_" gradientUnits="userSpaceOnUse" x1="-2500.2502" y1="274.5384" x2="-1930.345" y2="274.5384" gradientTransform="matrix(-1 0 0 1 -1912.3076 0)"> <stop offset="0" style="stop-color:#F04F24"></stop> <stop offset="1" style="stop-color:#F1CC26"></stop> </linearGradient> <path fill="none" stroke="url(#SVGID_21_)" stroke-miterlimit="10" d="M366.541-51.285 C251.321-74.162,14.804,64.619,18.582,134.633c2.731,50.611,249.939,389.61,569.241,468.26"></path> <linearGradient id="SVGID_22_" gradientUnits="userSpaceOnUse" x1="-2499.6504" y1="284.4655" x2="-1925.9579" y2="284.4655" gradientTransform="matrix(-1 0 0 1 -1912.3076 0)"> <stop offset="0" style="stop-color:#F04F24"></stop> <stop offset="1" style="stop-color:#F1CC26"></stop> </linearGradient> <path fill="none" stroke="url(#SVGID_22_)" stroke-miterlimit="10" d="M365.409-50.286 C250.455-72.564,13.218,69.524,14.153,140.927c0.629,47.98,243.807,398.558,573.069,480.648"></path> <linearGradient id="SVGID_23_" gradientUnits="userSpaceOnUse" x1="-2499.0505" y1="294.3885" x2="-1921.5256" y2="294.3885" gradientTransform="matrix(-1 0 0 1 -1912.3076 0)"> <stop offset="0" style="stop-color:#F04F24"></stop> <stop offset="1" style="stop-color:#F1CC26"></stop> </linearGradient> <path fill="none" stroke="url(#SVGID_23_)" stroke-miterlimit="10" d="M364.277-49.287C249.589-70.965,11.961,74.52,9.724,147.221 C8.325,192.676,247.4,554.728,586.62,640.258"></path> </g> <g> </g> <g> </g> <g> </g> <g> </g> <g> </g> <g> </g> </g> </svg> 